<?xml version="1.0" encoding="UTF-8"?>
<!DOCTYPE svg PUBLIC "-//W3C//DTD SVG 1.1//EN" "http://www.w3.org/Graphics/SVG/1.1/DTD/svg11.dtd">
<!-- Creator: CorelDRAW X8 -->
<svg xmlns="http://www.w3.org/2000/svg" xml:space="preserve" width="130.432mm" height="52.5122mm" version="1.1" style="shape-rendering:geometricPrecision; text-rendering:geometricPrecision; image-rendering:optimizeQuality; fill-rule:evenodd; clip-rule:evenodd"
viewBox="0 0 9523 3834"
 xmlns:xlink="http://www.w3.org/1999/xlink">
 <defs>
  <style type="text/css">
   <![CDATA[
    .fil5 {fill:#F288B6;fill-rule:nonzero}
    .fil0 {fill:#FCD851;fill-rule:nonzero}
    .fil4 {fill:#D4519C;fill-rule:nonzero}
    .fil1 {fill:#ACD046;fill-rule:nonzero}
    .fil2 {fill:#A0CE6D;fill-rule:nonzero}
    .fil3 {fill:#816BAE;fill-rule:nonzero}
   ]]>
  </style>
 </defs>
 <g id="Camada_x0020_1">
  <metadata id="CorelCorpID_0Corel-Layer"/>
  <path class="fil0" d="M7059 1335l-7 12c286,-354 798,-453 1198,-209 238,145 547,70 692,-167 145,-236 70,-546 -167,-690 -598,-363 -1316,-363 -1896,-63 321,273 406,746 180,1117z"/>
  <path class="fil0" d="M9379 1670c-124,-148 -278,-192 -395,-192l-713 0c-278,0 -503,224 -503,502 0,277 225,502 503,502l210 0 0 21c-130,150 -303,255 -501,298 -119,26 -242,28 -360,7 -3,0 -6,-1 -8,-1 -24,-5 -48,-10 -71,-17 -12,-3 -23,-6 -35,-10 -15,-5 -31,-10 -46,-16 -16,-6 -32,-12 -47,-19 -13,-6 -26,-11 -38,-18 -11,-5 -22,-11 -32,-17 -20,-11 -39,-22 -58,-34 -160,-103 -278,-248 -349,-411 0,0 0,-1 0,-1 -11,-26 -21,-53 -30,-80 -1,-3 -2,-6 -3,-8 -7,-25 -14,-50 -20,-76 -1,-5 -2,-10 -3,-16 -5,-23 -9,-46 -12,-69 -1,-8 -1,-16 -2,-24 -2,-21 -4,-41 -4,-62 -1,-11 0,-22 0,-34 0,-17 0,-35 1,-53 1,-14 3,-28 4,-43 2,-14 3,-29 6,-43 2,-18 6,-35 10,-53 2,-11 5,-22 7,-33 6,-21 12,-41 19,-61 3,-8 5,-16 8,-24 6,-18 14,-35 21,-52l-817 1343c155,266 376,499 658,670 103,63 212,115 324,157 2,1 5,2 7,3 34,12 67,23 101,34 24,7 48,15 71,21 10,2 19,5 29,7 25,6 49,12 74,17 10,2 20,4 29,6 25,5 50,9 75,13 10,2 20,3 31,5 23,3 47,6 71,8 7,1 15,2 23,3 5,0 9,0 14,1 11,0 22,1 33,2 22,1 43,2 64,3 6,0 11,0 17,0 533,0 1196,-255 1527,-794 331,-538 306,-1110 110,-1362z"/>
  <path class="fil1" d="M6952 1501c-2,6 -4,11 -7,16 -2,6 -4,11 -7,16l114 -186c-23,28 -44,57 -64,89 -13,21 -25,43 -36,65z"/>
  <path class="fil2" d="M6945 1517c3,-5 5,-10 7,-16 11,-22 23,-44 36,-65 20,-32 41,-61 64,-89l7 -12c226,-371 141,-844 -180,-1117 -265,137 -502,337 -684,594 -12,16 -24,31 -35,48 -80,124 -143,254 -191,388 -1,2 -2,4 -2,6 -10,27 -19,54 -27,81 -2,5 -3,9 -5,14 -7,24 -14,49 -20,73 -2,8 -4,15 -6,23 -5,22 -10,44 -14,66 -2,10 -4,20 -6,30 -4,20 -7,39 -10,59 -2,12 -4,25 -6,38 -2,17 -5,34 -6,51 -2,15 -3,30 -5,45 -1,15 -2,30 -3,45 -1,17 -2,34 -3,52 0,12 0,25 -1,38 0,19 0,38 0,58 1,10 1,21 1,32 1,21 2,42 3,63 1,9 1,18 2,27 2,22 4,45 7,68 1,7 1,14 2,21 3,25 7,49 11,73 1,6 2,11 3,17 4,25 9,51 14,76 1,4 2,8 3,12 6,27 12,54 19,80 1,3 2,5 3,8 7,28 15,55 24,83 0,1 1,3 1,4 10,29 19,57 30,85 0,0 0,1 0,1 39,103 87,203 143,299l817 -1343c3,-5 5,-10 7,-16z"/>
  <path class="fil3" d="M6600 56c-392,-141 -831,36 -1048,392l-400 656c-56,93 -192,93 -249,0l-386 -634c-211,-346 -625,-526 -1002,-429 715,189 1001,1003 1001,1531 0,470 -255,909 -599,1274l347 568c142,234 377,370 629,405 27,5 54,8 82,10 12,1 24,5 37,5 5,0 11,-1 16,-1 6,0 11,1 17,1 12,0 24,-4 37,-5 27,-2 54,-5 81,-10 252,-35 488,-171 630,-405l328 -538c-56,-96 -104,-196 -143,-299 0,0 0,-1 0,-1 -11,-28 -20,-56 -30,-85 0,-1 -1,-3 -1,-4 -9,-28 -17,-55 -24,-83 -1,-3 -2,-5 -3,-8 -7,-26 -13,-53 -19,-80 -1,-4 -2,-8 -3,-12 -5,-25 -10,-51 -14,-76 -1,-6 -2,-11 -3,-17 -4,-24 -8,-48 -11,-73 -1,-7 -1,-14 -2,-21 -3,-23 -5,-46 -7,-68 -1,-9 -1,-18 -2,-27 -1,-21 -2,-42 -3,-63 0,-11 0,-22 -1,-32 0,-20 0,-39 0,-59 1,-12 1,-25 1,-37 1,-18 2,-35 3,-52 1,-15 2,-30 3,-45 2,-15 3,-30 5,-45 1,-17 4,-34 6,-51 2,-13 4,-26 6,-38 3,-20 6,-39 10,-59 2,-10 4,-20 6,-30 4,-22 9,-44 14,-66 2,-8 4,-15 6,-23 6,-24 13,-49 20,-73 2,-5 3,-9 5,-14 8,-27 17,-54 27,-81 0,-2 1,-4 2,-6 48,-134 111,-264 191,-388 11,-17 23,-32 35,-48 182,-257 419,-457 684,-594 -79,-68 -172,-123 -279,-162z"/>
  <path class="fil4" d="M3515 41c-5,1 -10,2 -14,3 -58,16 -115,38 -170,68 -445,239 -593,798 -334,1223l867 1424 53 87c344,-365 599,-804 599,-1274 0,-528 -286,-1342 -1001,-1531z"/>
  <path class="fil5" d="M3864 2759l-867 -1424c-259,-425 -111,-984 334,-1223 55,-30 112,-52 170,-68 4,-1 9,-2 14,-3 -258,-68 -573,-56 -951,83 -99,37 -203,53 -306,50 -104,3 -207,-13 -307,-50 -1423,-523 -1951,729 -1951,1448 0,1228 1729,2254 2258,2254 318,0 1104,-392 1659,-980l-53 -87zm-1606 10l0 0c-499,0 -902,-404 -902,-902 0,-498 403,-902 902,-902 498,0 902,404 902,902 0,498 -404,902 -902,902z"/>
 </g>
</svg>
